<svg xmlns="http://www.w3.org/2000/svg" width="160" height="160" viewBox="0 0 160 160" fill="none">
  <defs>
    <linearGradient id="bg" x1="20" y1="10" x2="150" y2="155" gradientUnits="userSpaceOnUse">
      <stop offset="0" stop-color="#2a2c34"/>
      <stop offset="1" stop-color="#0b0b0e"/>
    </linearGradient>
    <radialGradient id="glow" cx="0.3" cy="0.18" r="0.6">
      <stop offset="0" stop-color="#a3e635" stop-opacity="0.4"/>
      <stop offset="1" stop-color="#a3e635" stop-opacity="0"/>
    </radialGradient>
    <linearGradient id="body" x1="49" y1="20" x2="111" y2="140" gradientUnits="userSpaceOnUse">
      <stop offset="0" stop-color="#ffffff"/>
      <stop offset="1" stop-color="#dbe1e8"/>
    </linearGradient>
    <linearGradient id="glass" x1="57" y1="33" x2="103" y2="125" gradientUnits="userSpaceOnUse">
      <stop offset="0" stop-color="#333944"/>
      <stop offset="1" stop-color="#14161b"/>
    </linearGradient>
  </defs>
  <rect width="160" height="160" rx="34" fill="url(#bg)"/>
  <rect width="160" height="160" rx="34" fill="url(#glow)"/>
  <ellipse cx="55" cy="24" rx="46" ry="16" fill="#fff" opacity=".07"/>
  <rect x="49" y="20" width="62" height="120" rx="16" fill="url(#body)" stroke="#A3E635" stroke-width="5"/>
  <rect x="57" y="33" width="46" height="92" rx="5" fill="url(#glass)"/>
  <path d="M80 60L59 45M80 60L103 49M80 60L61 101M80 60L101 107M80 60L80 119M69 60L74 71M91 60L87 73M65 78L74 82M87 84L95 80" stroke="#E5E7EB" stroke-width="3.4" stroke-linecap="round" stroke-linejoin="round" opacity=".85"/>
  <circle cx="80" cy="60" r="4.5" fill="#A3E635"/>
  <path d="M54 130H106" stroke="#A3E635" stroke-width="5" stroke-linecap="round"/>
</svg>
